<?xml version="1.0" encoding="UTF-8" standalone="no"?>
<svg
   id="Layer_2"
   data-name="Layer 2"
   viewBox="0 0 437.69 437.69"
   version="1.1"
   sodipodi:docname="stork-24-4.svg"
   width="437.69"
   height="437.69"
   inkscape:version="1.2.2 (b0a8486, 2022-12-01)"
   xmlns:inkscape="http://www.inkscape.org/namespaces/inkscape"
   xmlns:sodipodi="http://sodipodi.sourceforge.net/DTD/sodipodi-0.dtd"
   xmlns:xlink="http://www.w3.org/1999/xlink"
   xmlns="http://www.w3.org/2000/svg"
   xmlns:svg="http://www.w3.org/2000/svg">
  <sodipodi:namedview
     id="namedview62"
     pagecolor="#ffffff"
     bordercolor="#666666"
     borderopacity="1.0"
     inkscape:showpageshadow="2"
     inkscape:pageopacity="0.0"
     inkscape:pagecheckerboard="0"
     inkscape:deskcolor="#d1d1d1"
     showgrid="false"
     inkscape:zoom="2.3464095"
     inkscape:cx="212.45226"
     inkscape:cy="220.54974"
     inkscape:window-width="1721"
     inkscape:window-height="1205"
     inkscape:window-x="202"
     inkscape:window-y="25"
     inkscape:window-maximized="0"
     inkscape:current-layer="Layer_2" />
  <defs
     id="defs24">
    <style
       id="style2">
      .cls-1 {
        fill: #ddd;
      }

      .cls-2 {
        stroke: url(#linear-gradient-3);
      }

      .cls-2, .cls-3, .cls-4 {
        fill: none;
        stroke-miterlimit: 10;
        stroke-width: 5px;
      }

      .cls-5 {
        fill: #ffd8bb;
      }

      .cls-6 {
        fill: #f0f6e2;
      }

      .cls-7 {
        fill: #efceb9;
      }

      .cls-8 {
        fill: #ffecd2;
      }

      .cls-9 {
        fill: #2b272a;
      }

      .cls-10 {
        fill: #9b2b1a;
      }

      .cls-11 {
        fill: #3f3d3f;
      }

      .cls-3 {
        stroke: url(#linear-gradient-4);
      }

      .cls-4 {
        stroke: url(#linear-gradient-2);
      }

      .cls-12 {
        fill: url(#linear-gradient);
      }

      .cls-13 {
        fill: #231f20;
      }
    </style>
    <linearGradient
       id="linear-gradient"
       x1="0"
       y1="110.4"
       x2="91.059998"
       y2="110.4"
       gradientUnits="userSpaceOnUse">
      <stop
         offset="0"
         stop-color="#9b2b1a"
         id="stop4" />
      <stop
         offset=".14"
         stop-color="#a63324"
         id="stop6" />
      <stop
         offset=".34"
         stop-color="#c0453b"
         id="stop8" />
      <stop
         offset=".57"
         stop-color="#c94f49"
         id="stop10" />
      <stop
         offset=".99"
         stop-color="#e36a6e"
         id="stop12" />
      <stop
         offset="1"
         stop-color="#e46b6f"
         id="stop14" />
    </linearGradient>
    <linearGradient
       id="linear-gradient-2"
       x1="-4471.3101"
       y1="281.10999"
       x2="-4471.2002"
       y2="352.98001"
       gradientTransform="matrix(-1,0,0,1,-4334.33,0)"
       gradientUnits="userSpaceOnUse">
      <stop
         offset="0"
         stop-color="#000"
         id="stop17" />
      <stop
         offset="1"
         stop-color="#000"
         id="stop19" />
    </linearGradient>
    <linearGradient
       id="linear-gradient-3"
       x1="-4505.96"
       y1="271.69"
       x2="-4505.7202"
       y2="431.54999"
       xlink:href="#linear-gradient-2" />
    <linearGradient
       id="linear-gradient-4"
       x1="-4508.5098"
       y1="432.20001"
       x2="-4508.5"
       y2="437.62"
       xlink:href="#linear-gradient-2" />
    <linearGradient
       inkscape:collect="always"
       xlink:href="#linear-gradient-2"
       id="linearGradient220"
       gradientUnits="userSpaceOnUse"
       gradientTransform="matrix(-1,0,0,1,-4334.33,0)"
       x1="-4471.3101"
       y1="281.10999"
       x2="-4471.2002"
       y2="352.98001" />
    <filter
       style="color-interpolation-filters:sRGB"
       inkscape:label="Drop Shadow"
       id="filter770"
       x="-0.061385784"
       y="-0.05514807"
       width="1.1227716"
       height="1.1160406">
      <feFlood
         flood-opacity="0.498039"
         flood-color="rgb(0,0,0)"
         result="flood"
         id="feFlood760" />
      <feComposite
         in="flood"
         in2="SourceGraphic"
         operator="in"
         result="composite1"
         id="feComposite762" />
      <feGaussianBlur
         in="composite1"
         stdDeviation="10"
         result="blur"
         id="feGaussianBlur764" />
      <feOffset
         dx="0"
         dy="0"
         result="offset"
         id="feOffset766" />
      <feComposite
         in="SourceGraphic"
         in2="offset"
         operator="over"
         result="composite2"
         id="feComposite768" />
    </filter>
  </defs>
  <g
     id="Layer_3"
     data-name="Layer 3"
     transform="matrix(0.90116789,0,0,0.90116789,42.680187,21.629853)"
     style="filter:url(#filter770)">
    <g
       id="g58">
      <path
         class="cls-12"
         d="M 0,179.53 C 16.59,133.44 33.17,87.36 49.76,41.27 63.53,46.65 77.3,52.02 91.06,57.4 81.93,75.98 69.64,97.51 53.1,120.05 34.9,144.86 16.27,164.48 0,179.53 Z"
         id="path26"
         style="fill:url(#linear-gradient)" />
      <path
         class="cls-10"
         d="M 56.67,65.3 C 12.6,157.96 1.14,179.78 0.22,179.36 c -0.52,-0.24 2.4,-7.42 12.12,-33.88 5.89,-16.04 10.72,-29.47 14.16,-39.08 3.13,-8.65 18.45,-50.94 18.68,-51.59 0.12,-0.34 0.25,-0.68 0.37,-1.02 2,-5.51 2.06,-5.67 2.13,-5.88 0.54,-1.51 1.28,-3.72 2.08,-6.63 2.3,8.01 4.61,16.02 6.91,24.03 z"
         id="path28" />
      <path
         class="cls-8"
         d="m 298.55,285.5 c 15.74,-1.24 31.49,-2.49 47.23,-3.73 6.62,8.58 13.25,17.15 19.87,25.73 l 7.01,10.75 c -10.46,-1.96 -19.09,-4.3 -25.45,-6.24 -14.53,-4.43 -26.33,-8.13 -38.51,-17.4 -4.64,-3.54 -8.06,-6.9 -10.15,-9.11 z"
         id="path30" />
      <path
         class="cls-5"
         d="m 311.61,244.91 c 4.92,0.32 10.12,0.5 15.57,0.49 8.68,-0.02 16.76,-0.52 24.13,-1.31 13.22,10.48 26.44,20.96 39.66,31.44 -4.33,1.11 -8.92,2.13 -13.75,3.01 -11.42,2.09 -21.99,3 -31.44,3.24 -1.39,-1.5 -3.47,-3.74 -4.89,-5.27 -8.58,-9.23 -12.29,-13.18 -15.83,-16.99 -3.23,-3.47 -7.84,-8.46 -13.45,-14.61 z"
         id="path32" />
      <path
         class="cls-9"
         d="m 124.12,153.14 c 0.49,-4.79 1.51,-11.67 3.89,-19.69 2.38,-8.03 4.08,-13.77 8.47,-19.12 6.35,-7.75 14.87,-10.38 19.09,-11.68 13.63,-4.21 39.04,-5.21 67.49,6.47 64.82,26.61 153.47,122.37 159.88,129.36 -8.32,2.08 -17.66,3.92 -27.9,5.17 -16.64,2.04 -31.56,2.05 -44.1,1.2 -24.23,-24.64 -42.9,-44.89 -55.08,-58.36 -6.17,-6.82 -28.99,-33.11 -55.2,-48.97 -6.09,-3.68 -18.05,-10.26 -33.14,-9.67 -4.28,0.17 -8.52,0.33 -13.5,2.52 -8.12,3.57 -10.71,9.07 -22.32,17.64 -3.22,2.37 -5.95,4.11 -7.58,5.11 z"
         id="path34" />
      <path
         class="cls-6"
         d="m 49.76,41.27 c 0.3,-3.29 2.19,-21.22 15.82,-32.1 5.94,-4.74 12.57,-6.92 13.44,-7.2 1.52,-0.49 7.48,-2.3 15.6,-1.92 4.37,0.2 19.72,0.92 30.96,12.96 2.16,2.31 6.89,7.51 8.76,15.59 1.47,6.37 1.06,13.36 -4.22,25.71 -4.99,11.64 -8.86,16.61 -17.66,30.9 -15.41,25.03 -18.02,33.36 -18.91,41.5 -1.43,13.13 2.35,19.14 3.85,21.21 1.05,1.45 6.26,8.37 14.41,9.04 6.3,0.51 11.29,-2.95 19.02,-8.32 5.76,-4 9.55,-7.65 9.55,-7.65 1.3,-1.25 2.6,-2.61 5.02,-4.72 3.63,-3.16 5.45,-4.24 6.22,-4.68 2.39,-1.35 4.39,-1.99 5.51,-2.34 8.87,-2.79 18.15,-1.17 21.23,-0.61 5.19,0.96 8.95,2.39 11.23,3.27 4.24,1.64 9.57,4.17 18.99,10.78 6.97,4.9 12.88,9.72 15.81,12.33 11.56,10.29 58.63,59.11 121.4,126.75 -8.96,0.8 -16.97,1.48 -23.82,2.05 -12.84,1.07 -18.84,1.55 -26.46,1.79 -21.35,0.68 -179.29,6.34 -226.59,-78.38 C 64.14,198.67 49.13,171.78 55.2,141.55 56.86,133.3 59.71,128.76 74.96,94.63 81.52,79.96 86.8,67.87 90.31,59.81 79.1,61.64 67.89,63.47 56.68,65.3 54.38,57.29 52.07,49.28 49.77,41.27 Z"
         id="path36" />
      <path
         class="cls-8"
         d="m 345.78,281.77 c -45.14,-23.44 -78.5,-39.58 -104.42,-50.62 -6.78,-2.89 -22.54,-9.47 -38.1,-24.17 -6.32,-5.97 -16.79,-16.13 -23.5,-32.85 -7.98,-19.87 -6.21,-38.01 -4.56,-47.31 2.42,0.77 5.71,1.89 9.56,3.39 4.52,1.76 10.81,4.11 17.39,8.08 4.69,2.83 8.44,5.58 13.26,9.42 3.89,3.09 13.11,10.58 20.88,18.12 11.55,11.22 53.55,55.26 109.5,115.94 z"
         id="path38" />
      <path
         class="cls-7"
         d="m 345.78,281.77 c -10.27,-1.64 -95.62,-15.53 -145.38,-36.71 -18.08,-7.69 -28.99,-15.56 -38.1,-24.17 -12.18,-11.51 -18.99,-24.64 -23.5,-32.85 -7.53,-13.7 -11.99,-26.03 -14.68,-34.91 1.85,-1.05 4.92,-2.91 8.41,-5.61 8.45,-6.53 9.83,-10.59 17.3,-14.91 4.85,-2.8 9.08,-3.87 10.59,-4.21 4.95,-1.13 14.86,-3.75 17.93,0.24 2.64,3.43 -2.42,8.27 -3.1,22.07 0,0 -0.19,3.82 0.15,7.98 1.14,14.14 9.83,25.21 12.45,28.56 19.45,24.8 84.41,56.6 97.06,62.83 13.78,6.79 34.96,17.48 60.86,31.69 z"
         id="path40" />
      <path
         class="cls-4"
         d="m 211.14,281.58 c -0.62,4.25 -1.14,8.7 -1.54,13.33 -0.96,11.23 -1,21.65 -0.5,31.05 -35.71,0.33 -71.42,0.65 -107.13,0.98 -13.49,7.93 -26.98,15.85 -40.47,23.78"
         id="path42"
         style="stroke:url(#linearGradient220)" />
      <path
         class="cls-2"
         d="m 165.7,272.4 c -0.15,0.49 -0.34,1.26 -0.42,2.22 -0.6,7.09 7.94,11.46 8.94,15.71 7.02,29.84 1.88,67.94 1.88,67.94 0.03,24.43 0.06,48.86 0.08,73.29"
         id="path44"
         style="stroke:url(#linear-gradient-3)" />
      <path
         class="cls-3"
         d="M 219,435.19 C 189.11,435 159.22,434.82 129.34,434.63"
         id="path46"
         style="stroke:url(#linear-gradient-4)" />
      <path
         class="cls-13"
         d="m 88.35,31.37 c 0.57,4.23 -4.98,7.58 -8.05,8.74 -4.26,1.61 -10.64,1.63 -12.18,-1.28 -2,-3.8 3.85,-13.36 11.1,-13.55 3.86,-0.1 8.64,2.45 9.13,6.09 z"
         id="path48" />
      <path
         class="cls-11"
         d="m 172.2,126.5 c 5.3,-2.03 13.51,-4.42 23.46,-4.06 20.67,0.74 35.58,12.84 44.05,19.91 22.72,18.96 62.46,54.08 111.6,101.72 -5.91,0.61 -12.29,1.06 -19.09,1.22 -7.37,0.18 -14.26,0 -20.61,-0.4 -32.86,-35.4 -61.09,-63.94 -81.99,-84.65 -7.99,-7.92 -21.11,-20.67 -42.06,-28.95 -6.28,-2.48 -11.69,-3.94 -15.36,-4.79 z"
         id="path50" />
      <g
         id="g56">
        <circle
           class="cls-13"
           cx="78.059998"
           cy="33.240002"
           r="7.6399999"
           transform="rotate(-85.93,78.06114,33.234552)"
           id="circle52" />
        <circle
           class="cls-1"
           cx="74.5"
           cy="34.540001"
           r="2.5999999"
           id="circle54" />
      </g>
    </g>
  </g>
</svg>
