<?xml version="1.0" encoding="UTF-8" standalone="no"?>
<!-- Created with Inkscape (http://www.inkscape.org/) -->

<svg
   xmlns:dc="http://purl.org/dc/elements/1.1/"
   xmlns:cc="http://creativecommons.org/ns#"
   xmlns:rdf="http://www.w3.org/1999/02/22-rdf-syntax-ns#"
   xmlns:svg="http://www.w3.org/2000/svg"
   xmlns="http://www.w3.org/2000/svg"
   xmlns:xlink="http://www.w3.org/1999/xlink"
   xmlns:sodipodi="http://sodipodi.sourceforge.net/DTD/sodipodi-0.dtd"
   xmlns:inkscape="http://www.inkscape.org/namespaces/inkscape"
   height="48"
   id="svg2"
   inkscape:export-filename="/home/hbons/GUI/Tango/Gaim Refresh/status/32/offline.png"
   inkscape:export-xdpi="90"
   inkscape:export-ydpi="90"
   inkscape:output_extension="org.inkscape.output.svg.inkscape"
   inkscape:version="0.48.2 r9819"
   sodipodi:docname="user-ask.svg"
   sodipodi:version="0.32"
   version="1.0"
   width="48">
  <metadata
     id="metadata3">
    <rdf:RDF>
      <cc:Work
         rdf:about="">
        <dc:title />
        <dc:description />
        <dc:subject>
          <rdf:Bag>
            <rdf:li>unsorted</rdf:li>
          </rdf:Bag>
        </dc:subject>
        <dc:publisher>
          <cc:Agent
             rdf:about="http://www.openclipart.org/">
            <dc:title>Open Clip Art Library, Source: GNOME-Colors, Source: GNOME-Colors, Source: GNOME-Colors, Source: GNOME-Colors, Source: GNOME-Colors, Source: GNOME-Colors</dc:title>
          </cc:Agent>
        </dc:publisher>
        <dc:creator>
          <cc:Agent>
            <dc:title />
          </cc:Agent>
        </dc:creator>
        <dc:rights>
          <cc:Agent>
            <dc:title />
          </cc:Agent>
        </dc:rights>
        <dc:date />
        <dc:format>image/svg+xml</dc:format>
        <dc:type
           rdf:resource="http://purl.org/dc/dcmitype/StillImage" />
        <cc:license
           rdf:resource="http://creativecommons.org/licenses/GPL/2.0/" />
        <dc:language>en</dc:language>
      </cc:Work>
    </rdf:RDF>
  </metadata>
  <defs
     id="defs4">
    <filter
       height="1.5914286"
       id="filter10542"
       inkscape:collect="always"
       width="1.25875"
       x="-0.129375"
       y="-0.29571429">
      <feGaussianBlur
         id="feGaussianBlur10544"
         inkscape:collect="always"
         stdDeviation="0.8625" />
    </filter>
    <filter
       height="1.4934748"
       id="filter10591"
       inkscape:collect="always"
       width="1.5876306"
       x="-0.29381531"
       y="-0.24673747">
      <feGaussianBlur
         id="feGaussianBlur10593"
         inkscape:collect="always"
         stdDeviation="0.43251839" />
    </filter>
    <linearGradient
       id="linearGradient3275"
       inkscape:collect="always">
      <stop
         id="stop3277"
         offset="0"
         style="stop-color:#2e3436;stop-opacity:1;" />
      <stop
         id="stop3279"
         offset="1"
         style="stop-color:#61635f;stop-opacity:1" />
    </linearGradient>
    <linearGradient
       gradientTransform="matrix(2.798139,0,0,2.7981393,1.1148802,0.1148595)"
       gradientUnits="userSpaceOnUse"
       id="linearGradient9476"
       inkscape:collect="always"
       x1="14.345539"
       x2="6.8097677"
       xlink:href="#linearGradient3275"
       y1="14.69435"
       y2="4.3450422" />
    <linearGradient
       id="linearGradient3295"
       inkscape:collect="always">
      <stop
         id="stop3297"
         offset="0"
         style="stop-color:#babdb6;stop-opacity:1" />
      <stop
         id="stop3299"
         offset="1"
         style="stop-color:#888a85;stop-opacity:1" />
    </linearGradient>
    <linearGradient
       gradientTransform="matrix(2.798139,0,0,2.7981393,1.1148802,0.1148595)"
       gradientUnits="userSpaceOnUse"
       id="linearGradient9474"
       inkscape:collect="always"
       x1="4.8374491"
       x2="12.060304"
       xlink:href="#linearGradient3295"
       y1="3.565635"
       y2="13.821809" />
    <linearGradient
       id="linearGradient3303"
       inkscape:collect="always">
      <stop
         id="stop3305"
         offset="0"
         style="stop-color:#ffffff;stop-opacity:1;" />
      <stop
         id="stop3307"
         offset="1"
         style="stop-color:#ffffff;stop-opacity:0;" />
    </linearGradient>
    <linearGradient
       gradientTransform="matrix(-3.0771036,0,0,-3.0770117,48.11683,47.1155)"
       gradientUnits="userSpaceOnUse"
       id="linearGradient9906"
       inkscape:collect="always"
       x1="6.8490844"
       x2="-3.3852992"
       xlink:href="#linearGradient3303"
       y1="8.6799088"
       y2="-4.1349444" />
    <linearGradient
       id="linearGradient11259"
       inkscape:collect="always">
      <stop
         id="stop11261"
         offset="0"
         style="stop-color:#ffffff;stop-opacity:1;" />
      <stop
         id="stop11263"
         offset="1"
         style="stop-color:#ffffff;stop-opacity:0;" />
    </linearGradient>
    <radialGradient
       cx="11.736404"
       cy="7.3689327"
       fx="11.800528"
       fy="1.1734189"
       gradientTransform="matrix(1.023438,0,0,0.8870879,-0.2709505,0.7064648)"
       gradientUnits="userSpaceOnUse"
       id="radialGradient9837"
       inkscape:collect="always"
       r="9.975256"
       xlink:href="#linearGradient11259" />
  </defs>
  <sodipodi:namedview
     bordercolor="#666666"
     borderopacity="1.0"
     fill="#888a85"
     id="base"
     inkscape:current-layer="layer1"
     inkscape:cx="-3.2031418"
     inkscape:cy="34.327713"
     inkscape:document-units="px"
     inkscape:pageopacity="0.0"
     inkscape:pageshadow="2"
     inkscape:window-height="849"
     inkscape:window-width="1278"
     inkscape:window-x="26"
     inkscape:window-y="56"
     inkscape:zoom="8.488013"
     pagecolor="#ffffff"
     showgrid="true"
     inkscape:window-maximized="0">
    <inkscape:grid
       enabled="true"
       id="grid6336"
       type="xygrid"
       visible="true" />
  </sodipodi:namedview>
  <g
     id="layer1"
     inkscape:groupmode="layer"
     inkscape:label="Layer 1">
    <rect
       height="48"
       id="rect9231"
       inkscape:label="48x48"
       style="opacity:0;fill:#babdb6;fill-opacity:1;fill-rule:nonzero;stroke:none;stroke-width:2;marker:none;marker-start:none;marker-mid:none;marker-end:none;visibility:visible;display:inline;overflow:visible;enable-background:accumulate"
       width="48"
       x="-1"
       y="-1" />
    <path
       d="M 52.000003,144.5 C 52.000003,146.432 48.416002,148 44.000003,148 C 39.584003,148 36.000003,146.432 36.000003,144.5 C 36.000003,142.568 39.584003,141 44.000003,141 C 48.416002,141 52.000003,142.568 52.000003,144.5 z"
       id="path9247"
       style="opacity:0.75;fill:#2e3436;fill-opacity:1;fill-rule:evenodd;stroke:none;stroke-width:0.99999917;stroke-miterlimit:4;stroke-opacity:1;display:inline;filter:url(#filter10542);enable-background:new"
       transform="matrix(2.1000004,0,0,2.0998147,-67.9125,-266.22267)" />
    <path
       d="M 13.350222,4.7465701 A 1.8659533,1.9428998 0 1 1 9.6183158,4.7465701 A 1.8659533,1.9428998 0 1 1 13.350222,4.7465701 z"
       id="path9448"
       sodipodi:cx="11.484269"
       sodipodi:cy="4.7465701"
       sodipodi:rx="1.8659533"
       sodipodi:ry="1.9428998"
       sodipodi:type="arc"
       style="opacity:0.2;fill:#ffffff;fill-opacity:1;stroke:none;display:inline;filter:url(#filter10591);enable-background:new"
       transform="matrix(6.1643533,-3.5894243,2.6453701,4.6210964,-64.04477,36.18816)" />
    <path
       d="M 38.34994,37.34994 C 30.15104,45.54881 16.84411,45.55019 8.6469402,37.35301 C 0.44981016,29.15587 0.45119016,15.848925 8.6500502,7.6500325 C 16.84893,-0.54883053 30.15584,-0.55021053 38.35302,7.6469275 C 46.55019,15.84411 46.54881,29.15104 38.34994,37.34994 z"
       id="path9450"
       style="fill:url(#linearGradient9474);fill-opacity:1;stroke:url(#linearGradient9476);stroke-width:0.99999821;stroke-miterlimit:4;stroke-opacity:1;display:inline;enable-background:new" />
    <path
       d="M 23.49996,42.5 C 28.6307,42.49945 33.73146,40.53829 37.63542,36.63442 C 45.45575,28.81435 45.45394,16.18269 37.63542,8.3644175 C 29.81694,0.54610647 17.18488,0.54427547 9.3645602,8.3644175 C 1.5441802,16.18449 1.5460502,28.81618 9.3645602,36.63442 C 13.26763,40.53743 18.37048,42.50054 23.49996,42.5 z"
       id="path9904"
       style="opacity:0.4;fill:none;fill-opacity:1;stroke:url(#linearGradient9906);stroke-width:0.99999779;stroke-miterlimit:4;stroke-opacity:1;display:inline;enable-background:new" />
    <path
       d="M 21.781414,10.983024 A 9.975256,9.975256 0 1 1 1.8309021,10.983024 A 9.975256,9.975256 0 1 1 21.781414,10.983024 z"
       id="path9829"
       sodipodi:cx="11.806158"
       sodipodi:cy="10.983024"
       sodipodi:rx="9.975256"
       sodipodi:ry="9.975256"
       sodipodi:type="arc"
       style="fill:url(#radialGradient9837);fill-opacity:1;stroke:none;stroke-width:0.51155168;stroke-miterlimit:4;stroke-dasharray:none;stroke-opacity:1;display:inline;enable-background:new"
       transform="matrix(1.6929363,-0.9774173,0.9774173,1.6929363,-7.2230198,15.445035)" />
    <path
       inkscape:connector-curvature="0"
       style="fill:#ffffff;stroke:#555753;stroke-opacity:1;stroke-linejoin:round;stroke-linecap:round;stroke-width:1;stroke-miterlimit:4;stroke-dasharray:none"
       id="rect1872"
       d="m 22.872995,10.621747 c -0.904701,2.1e-5 -1.834678,0.115942 -2.803114,0.323408 -0.96784,0.20738 -2.03332,0.5057 -3.203543,0.940814 -0.0089,-0.0011 -0.01783,-0.0011 -0.0267,0 -0.01031,0.0081 -0.01932,0.01805 -0.02671,0.02941 -0.01029,0.0081 -0.01932,0.01805 -0.02668,0.0294 -0.001,0.0098 -0.001,0.01963 0,0.0294 -0.001,0.0098 -0.001,0.01963 0,0.02941 l 0,4.851091 c -0.001,0.0098 -0.001,0.01964 0,0.02941 -0.001,0.0098 -0.001,0.01964 0,0.0294 0.0074,0.01135 0.01639,0.02128 0.02668,0.02941 0.0074,0.01134 0.0164,0.02127 0.02671,0.0294 0.0089,0.0011 0.01783,0.0011 0.0267,0 0.0089,0.0011 0.01782,0.0011 0.02669,0 0.0089,0.0011 0.01784,0.0011 0.02671,0 0.0089,0.0011 0.01782,0.0011 0.02669,0 0.975977,-0.676493 1.907913,-1.192162 2.803126,-1.528832 0.895399,-0.346935 1.745391,-0.529201 2.509439,-0.529217 0.8109,1.6e-5 1.405229,0.198085 1.842042,0.588013 0.434593,0.378292 0.667401,0.924868 0.667408,1.617029 -6e-6,0.452219 -0.12317,0.89511 -0.373749,1.352426 -0.241749,0.458194 -0.632385,0.969514 -1.174636,1.499432 l -0.934367,0.882021 c -1.026385,1.016537 -1.69937,1.873188 -2.028915,2.557852 -0.327284,0.669335 -0.480539,1.4294 -0.480537,2.293242 l 0,0.764408 c -0.001,0.0098 -0.001,0.01964 0,0.02941 -0.001,0.0098 -0.001,0.01963 0,0.0294 0.0074,0.01134 0.01639,0.02128 0.0267,0.0294 0.0074,0.01134 0.0164,0.02128 0.0267,0.0294 0.0089,0.0011 0.01782,0.0011 0.02669,0 0.0089,0.0011 0.01783,0.0011 0.0267,0 l 5.205772,0 c 0.0089,0.0011 0.01782,0.0011 0.02669,0 0.0089,0.0011 0.01783,0.0011 0.0267,0 0.0103,-0.0081 0.01932,-0.01805 0.0267,-0.0294 0.01031,-0.0081 0.01932,-0.01806 0.0267,-0.0294 0.001,-0.0098 0.001,-0.01963 0,-0.0294 0.001,-0.0098 0.001,-0.01964 0,-0.02941 l 0,-0.705605 c -8e-6,-0.44049 0.12675,-0.84002 0.320353,-1.20543 0.189913,-0.368125 0.604899,-0.894115 1.254733,-1.528825 l 0.907669,-0.88202 c 0.911168,-0.924172 1.563902,-1.773117 1.948826,-2.587249 0.3838,-0.822322 0.587301,-1.762549 0.587323,-2.793051 -2.2e-5,-2.000434 -0.635398,-3.513049 -1.895441,-4.557097 -1.260241,-1.054693 -3.080765,-1.587629 -5.446059,-1.58765 z m -3.04337,18.022556 c -0.01031,0.0081 -0.01934,0.01806 -0.0267,0.02939 -0.01031,0.0081 -0.01932,0.01806 -0.0267,0.02941 -0.001,0.0098 -0.001,0.01963 0,0.0294 -0.001,0.0098 -0.001,0.01963 0,0.0294 l 0,5.497898 c -0.001,0.0098 -0.001,0.01964 0,0.0294 -0.001,0.0098 -0.001,0.01964 0,0.0294 0.0074,0.01134 0.01639,0.02128 0.0267,0.0294 0.0074,0.01135 0.0164,0.02128 0.0267,0.0294 0.0089,0.0011 0.01782,0.0011 0.02669,0 0.0089,0.0011 0.01783,0.0011 0.0267,0 l 5.205772,0 c 0.0089,0.0011 0.01782,0.0011 0.02669,0 0.0089,0.0011 0.01783,0.0011 0.0267,0 0.0103,-0.0081 0.01932,-0.01805 0.0267,-0.0294 0.01031,-0.0081 0.01932,-0.01805 0.0267,-0.0294 0.001,-0.0098 0.001,-0.01965 0,-0.0294 0.001,-0.0098 0.001,-0.01963 0,-0.0294 l 0,-5.497898 c 0.001,-0.0098 0.001,-0.01963 0,-0.0294 0.001,-0.0098 0.001,-0.01963 0,-0.0294 -0.0074,-0.01135 -0.01639,-0.02128 -0.0267,-0.02941 -0.0074,-0.01134 -0.0164,-0.02127 -0.0267,-0.02939 -0.0089,-0.0011 -0.01782,-0.0011 -0.0267,0 -0.0089,-0.0011 -0.01782,-0.0011 -0.02669,0 l -5.205772,0 c -0.0089,-0.0011 -0.01783,-0.0011 -0.0267,0 -0.0089,-0.0011 -0.01783,-0.0011 -0.02669,0 z" />
  </g>
</svg>
