<?xml version="1.0" encoding="UTF-8" standalone="no"?>
<!-- Created with Inkscape (http://www.inkscape.org/) --><svg height="48" id="svg1331" inkscape:export-filename="/home/hbons/GUI/Tango/Gaim Refresh/status/22/away.png" inkscape:export-xdpi="90" inkscape:export-ydpi="90" inkscape:output_extension="org.inkscape.output.svg.inkscape" inkscape:version="0.46+devel" sodipodi:docname="user-extended-away.svg" sodipodi:version="0.32" version="1.0" width="48" xmlns="http://www.w3.org/2000/svg" xmlns:cc="http://creativecommons.org/ns#" xmlns:dc="http://purl.org/dc/elements/1.1/" xmlns:inkscape="http://www.inkscape.org/namespaces/inkscape" xmlns:rdf="http://www.w3.org/1999/02/22-rdf-syntax-ns#" xmlns:sodipodi="http://sodipodi.sourceforge.net/DTD/sodipodi-0.dtd" xmlns:svg="http://www.w3.org/2000/svg" xmlns:xlink="http://www.w3.org/1999/xlink">
  <metadata>
    <rdf:RDF xmlns:cc="http://web.resource.org/cc/" xmlns:dc="http://purl.org/dc/elements/1.1/" xmlns:rdf="http://www.w3.org/1999/02/22-rdf-syntax-ns#">
      <cc:Work rdf:about="">
        <dc:title></dc:title>
        <dc:description></dc:description>
        <dc:subject>
          <rdf:Bag>
            <rdf:li>unsorted</rdf:li>
          </rdf:Bag>
        </dc:subject>
        <dc:publisher>
          <cc:Agent rdf:about="http://www.openclipart.org/">
            <dc:title>Open Clip Art Library, Source: GNOME-Colors, Source: GNOME-Colors, Source: GNOME-Colors, Source: GNOME-Colors, Source: GNOME-Colors, Source: GNOME-Colors</dc:title>
          </cc:Agent>
        </dc:publisher>
        <dc:creator>
          <cc:Agent>
            <dc:title></dc:title>
          </cc:Agent>
        </dc:creator>
        <dc:rights>
          <cc:Agent>
            <dc:title></dc:title>
          </cc:Agent>
        </dc:rights>
        <dc:date></dc:date>
        <dc:format>image/svg+xml</dc:format>
        <dc:type rdf:resource="http://purl.org/dc/dcmitype/StillImage"/>
        <cc:license rdf:resource="http://creativecommons.org/licenses/GPL/2.0/"/>
        <dc:language>en</dc:language>
      </cc:Work>
    </rdf:RDF>
  </metadata>
  <defs id="defs1333">
    <linearGradient id="linearGradient8648" inkscape:collect="always">
      <stop id="stop8650" offset="0" style="stop-color:#f57900;stop-opacity:1"/>
      <stop id="stop8652" offset="1" style="stop-color:#833a00;stop-opacity:1"/>
    </linearGradient>
    <linearGradient gradientUnits="userSpaceOnUse" id="linearGradient9995" inkscape:collect="always" x1="6.2939439" x2="8.5330935" xlink:href="#linearGradient8648" y1="4.7692041" y2="16.166666"/>
    <linearGradient id="linearGradient8634" inkscape:collect="always">
      <stop id="stop8636" offset="0" style="stop-color:#ffffff;stop-opacity:1;"/>
      <stop id="stop8638" offset="1" style="stop-color:#ffffff;stop-opacity:0;"/>
    </linearGradient>
    <linearGradient gradientUnits="userSpaceOnUse" id="linearGradient9999" inkscape:collect="always" x1="-0.61538464" x2="27.720596" xlink:href="#linearGradient8634" y1="-3.8347311" y2="26.762022"/>
    <linearGradient id="linearGradient8658" inkscape:collect="always">
      <stop id="stop8660" offset="0" style="stop-color:#ffffff;stop-opacity:1;"/>
      <stop id="stop8662" offset="1" style="stop-color:#ffffff;stop-opacity:0;"/>
    </linearGradient>
    <linearGradient gradientUnits="userSpaceOnUse" id="linearGradient9997" inkscape:collect="always" x1="-0.61538464" x2="9.8706741" xlink:href="#linearGradient8658" y1="1.0377178" y2="8"/>
    <linearGradient id="linearGradient11259" inkscape:collect="always">
      <stop id="stop11261" offset="0" style="stop-color:#ffffff;stop-opacity:1;"/>
      <stop id="stop11263" offset="1" style="stop-color:#ffffff;stop-opacity:0;"/>
    </linearGradient>
    <radialGradient cx="11.736404" cy="7.3689327" fx="11.800528" fy="1.1734189" gradientTransform="matrix(1.023438,0,0,0.8870879,-0.2709505,0.7064648)" gradientUnits="userSpaceOnUse" id="radialGradient10001" inkscape:collect="always" r="9.975256" xlink:href="#linearGradient11259"/>
    <linearGradient id="linearGradient10119" inkscape:collect="always">
      <stop id="stop10121" offset="0" style="stop-color:#f57900;stop-opacity:1"/>
      <stop id="stop10123" offset="1" style="stop-color:#b14e00;stop-opacity:1"/>
    </linearGradient>
    <linearGradient gradientTransform="translate(-319.99002,-51.96875)" gradientUnits="userSpaceOnUse" id="linearGradient10125" inkscape:collect="always" x1="340.27557" x2="352.02774" xlink:href="#linearGradient10119" y1="74.484375" y2="77.224411"/>
    <filter height="1.5914286" id="filter10542" inkscape:collect="always" width="1.25875" x="-0.129375" y="-0.29571429">
      <feGaussianBlur id="feGaussianBlur10544" inkscape:collect="always" stdDeviation="0.8625"/>
    </filter>
  </defs>
  <sodipodi:namedview bordercolor="#666666" borderopacity="1.0" fill="#729fcf" height="32px" id="base" inkscape:current-layer="layer1" inkscape:cx="30.941526" inkscape:cy="10.42067" inkscape:document-units="px" inkscape:grid-bbox="true" inkscape:pageopacity="0.0" inkscape:pageshadow="2" inkscape:window-height="844" inkscape:window-width="1434" inkscape:window-x="244" inkscape:window-y="78" inkscape:zoom="9.8491555" pagecolor="#ffffff" showgrid="true" width="32px">
    <inkscape:grid enabled="true" id="grid5525" type="xygrid" visible="true"/>
  </sodipodi:namedview>
  <g id="layer1" inkscape:groupmode="layer" inkscape:label="Layer 1">
    <rect height="48" id="rect9480" inkscape:label="48x48" style="opacity:0;fill:#babdb6;fill-opacity:1;fill-rule:nonzero;stroke:none;stroke-width:2;marker:none;marker-start:none;marker-mid:none;marker-end:none;visibility:visible;display:inline;overflow:visible;enable-background:accumulate" width="48" x="-1" y="-1"/>
    <path d="M 52.000003,144.5 C 52.000003,146.432 48.416002,148 44.000003,148 C 39.584003,148 36.000003,146.432 36.000003,144.5 C 36.000003,142.568 39.584003,141 44.000003,141 C 48.416002,141 52.000003,142.568 52.000003,144.5 z" id="path9494" style="opacity:0.75;fill:#2e3436;fill-opacity:1;fill-rule:evenodd;stroke:none;stroke-width:0.99999917;stroke-miterlimit:4;stroke-opacity:1;display:inline;filter:url(#filter10542);enable-background:new" transform="matrix(2.1000004,0,0,2.0998147,-67.912502,-266.22267)"/>
    <path d="M 16,8 A 8,8 0 1 1 0,8 A 8,8 0 1 1 16,8 z" id="path9978" sodipodi:cx="8" sodipodi:cy="8" sodipodi:rx="8" sodipodi:ry="8" sodipodi:type="arc" style="fill:#edd400;fill-opacity:1;fill-rule:nonzero;stroke:url(#linearGradient9995);stroke-width:0.38095239;stroke-linecap:square;stroke-linejoin:miter;marker:none;marker-start:none;marker-mid:none;marker-end:none;stroke-miterlimit:4;stroke-dasharray:none;stroke-dashoffset:0;stroke-opacity:1;visibility:visible;display:inline;overflow:visible;enable-background:accumulate" transform="matrix(2.625,0,0,2.625,2.5099784,1.5000005)"/>
    <path d="M 16,8 A 8,8 0 1 1 0,8 A 8,8 0 1 1 16,8 z" id="path9980" sodipodi:cx="8" sodipodi:cy="8" sodipodi:rx="8" sodipodi:ry="8" sodipodi:type="arc" style="fill:url(#linearGradient9997);fill-opacity:1;fill-rule:nonzero;stroke:url(#linearGradient9999);stroke-width:0.40002236;stroke-linecap:square;stroke-linejoin:miter;marker:none;marker-start:none;marker-mid:none;marker-end:none;stroke-miterlimit:4;stroke-dasharray:none;stroke-dashoffset:0;stroke-opacity:1;visibility:visible;display:inline;overflow:visible;enable-background:accumulate" transform="matrix(2.5,0,0,2.499721,3.5099784,2.5044645)"/>
    <path d="M 21.781414,10.983024 A 9.975256,9.975256 0 1 1 1.8309021,10.983024 A 9.975256,9.975256 0 1 1 21.781414,10.983024 z" id="path9982" sodipodi:cx="11.806158" sodipodi:cy="10.983024" sodipodi:rx="9.975256" sodipodi:ry="9.975256" sodipodi:type="arc" style="fill:url(#radialGradient10001);fill-opacity:1;stroke:none;stroke-width:0.51155168;stroke-miterlimit:4;stroke-dasharray:none;stroke-opacity:1;display:inline;enable-background:new" transform="matrix(1.6928542,-0.97737,0.9773697,1.6928539,-7.2106016,15.44633)"/>
    <path d="M 14.541228,14 C 14.255108,14 14.009978,14.213879 14.009978,14.5 C 14.009978,14.786121 14.255088,15.03125 14.541228,15.03125 L 32.478728,15.03125 C 32.764848,15.03125 33.009978,14.786121 33.009978,14.5 C 33.009978,14.213879 32.764868,14 32.478728,14 L 14.541228,14 z M 17.541228,18 C 17.255108,18 17.009978,18.21388 17.009978,18.5 C 17.009978,18.78612 17.255088,19.03125 17.541228,19.03125 L 29.478728,19.03125 C 29.764848,19.03125 30.009978,18.78612 30.009978,18.5 C 30.009978,18.21388 29.764868,18 29.478728,18 L 17.541228,18 z M 17.541228,22.03125 C 17.255108,22.03125 17.009978,22.27638 17.009978,22.5625 C 17.009978,22.84862 17.255088,23.0625 17.541228,23.0625 L 29.478728,23.0625 C 29.764848,23.0625 30.009978,22.84862 30.009978,22.5625 C 30.009978,22.27638 29.764868,22.03125 29.478728,22.03125 L 17.541228,22.03125 z M 16.541228,26 C 16.255108,26 16.009978,26.21388 16.009978,26.5 C 16.009978,26.78612 16.255088,27.03125 16.541228,27.03125 L 30.478728,27.03125 C 30.764848,27.03125 31.009978,26.78612 31.009978,26.5 C 31.009978,26.21388 30.764868,26 30.478728,26 L 16.541228,26 z M 14.541228,30 C 14.255108,30 14.009978,30.21388 14.009978,30.5 C 14.009978,30.78612 14.255088,31.03125 14.541228,31.03125 L 32.478728,31.03125 C 32.764848,31.03125 33.009978,30.78612 33.009978,30.5 C 33.009978,30.21388 32.764868,30 32.478728,30 L 14.541228,30 z" id="rect10108" style="opacity:1;fill:url(#linearGradient10125);fill-opacity:1;fill-rule:nonzero;stroke:none;stroke-width:1;stroke-linecap:square;stroke-linejoin:miter;marker:none;marker-start:none;marker-mid:none;marker-end:none;stroke-miterlimit:4;stroke-dasharray:none;stroke-dashoffset:0;stroke-opacity:0.95686275;visibility:visible;display:inline;overflow:visible;enable-background:accumulate"/>
  </g>
</svg>
